<?xml version="1.0" standalone="no"?>
 <!DOCTYPE svg PUBLIC "-//W3C//DTD SVG 1.1//EN" 
 "http://www.w3.org/Graphics/SVG/1.1/DTD/svg11.dtd"> 
<svg xmlns="http://www.w3.org/2000/svg" version="1.1" 
    width="4.71424cm" height="5.50418cm" viewBox="0 0 18560 21670 ">
<title>SVG Picture created as LTBL-brd.svg date 2019/04/19 23:50:55 </title>
  <desc>Picture generated by PCBNEW </desc>
<g style="fill:#000000; fill-opacity:1;stroke:#000000; stroke-opacity:1;
stroke-linecap:round; stroke-linejoin:round; "
 transform="translate(0 0) scale(1 1)">
</g>
<g style="fill:#000000; fill-opacity:0.0; 
stroke:#000000; stroke-width:-0.000393701; stroke-opacity:1; 
stroke-linecap:round; stroke-linejoin:round;">
</g>
<g style="fill:#000000; fill-opacity:0.0; 
stroke:#000000; stroke-width:118.11; stroke-opacity:1; 
stroke-linecap:round; stroke-linejoin:round;">
<path d="M8634 17934
L8775 18328
L8915 17934
" />
<path d="M9450 18328
L9112 18328
" />
<path d="M9281 18328
L9281 17737
L9225 17821
L9169 17878
L9112 17906
" />
<path d="M9703 18271
L9731 18300
L9703 18328
L9675 18300
L9703 18271
L9703 18328
" />
<path d="M10097 17737
L10153 17737
L10209 17765
L10237 17793
L10265 17850
L10293 17962
L10293 18103
L10265 18215
L10237 18271
L10209 18300
L10153 18328
L10097 18328
L10040 18300
L10012 18271
L9984 18215
L9956 18103
L9956 17962
L9984 17850
L10012 17793
L10040 17765
L10097 17737
" />
<path d="M8378 16775
L8322 16747
L8210 16747
L8153 16775
L8097 16832
L8069 16888
L8069 17000
L8097 17057
L8153 17113
L8210 17141
L8322 17141
L8378 17113
" />
<path d="M8266 16550
L8125 16579
L7985 16663
L7900 16803
L7872 16944
L7900 17085
L7985 17225
L8125 17310
L8266 17338
L8406 17310
L8547 17225
L8631 17085
L8660 16944
L8631 16803
L8547 16663
L8406 16579
L8266 16550
" />
<path d="M9475 16635
L9588 16635
L9644 16663
L9700 16719
L9728 16832
L9728 17028
L9700 17141
L9644 17197
L9588 17225
L9475 17225
L9419 17197
L9363 17141
L9334 17028
L9334 16832
L9363 16719
L9419 16663
L9475 16635
" />
<path d="M10150 16635
L10150 17057
L10122 17141
L10066 17197
L9981 17225
L9925 17225
" />
<path d="M10628 16916
L10712 16944
L10741 16972
L10769 17028
L10769 17113
L10741 17169
L10712 17197
L10656 17225
L10431 17225
L10431 16635
L10628 16635
L10684 16663
L10712 16691
L10741 16747
L10741 16803
L10712 16860
L10684 16888
L10628 16916
L10431 16916
" />
</g>
<g style="fill:#000000; fill-opacity:0.0; 
stroke:#000000; stroke-width:47.2441; stroke-opacity:1; 
stroke-linecap:round; stroke-linejoin:round;">
<circle cx="14675.2" cy="3946.85" r="1031.5" /> 
<path d="M13659 3946
L15690 3946
" />
<path d="M13659 3931
L15690 3931
" />
<path d="M13659 3915
L15690 3915
" />
<path d="M13660 3899
L15690 3899
" />
<path d="M13661 3883
L15689 3883
" />
<path d="M13662 3868
L15688 3868
" />
<path d="M13663 3852
L14265 3852
" />
<path d="M15084 3852
L15686 3852
" />
<path d="M13665 3836
L14265 3836
" />
<path d="M15084 3836
L15685 3836
" />
<path d="M13666 3820
L14265 3820
" />
<path d="M15084 3820
L15683 3820
" />
<path d="M13668 3805
L14265 3805
" />
<path d="M15084 3805
L15681 3805
" />
<path d="M13671 3789
L14265 3789
" />
<path d="M15084 3789
L15679 3789
" />
<path d="M13674 3773
L14265 3773
" />
<path d="M15084 3773
L15676 3773
" />
<path d="M13676 3757
L14265 3757
" />
<path d="M15084 3757
L15673 3757
" />
<path d="M13679 3742
L14265 3742
" />
<path d="M15084 3742
L15670 3742
" />
<path d="M13683 3726
L14265 3726
" />
<path d="M15084 3726
L15667 3726
" />
<path d="M13686 3710
L14265 3710
" />
<path d="M15084 3710
L15663 3710
" />
<path d="M13690 3694
L14265 3694
" />
<path d="M15084 3694
L15659 3694
" />
<path d="M13694 3679
L14265 3679
" />
<path d="M15084 3679
L15655 3679
" />
<path d="M13698 3662
L14265 3662
" />
<path d="M15084 3662
L15651 3662
" />
<path d="M13703 3647
L14265 3647
" />
<path d="M15084 3647
L15646 3647
" />
<path d="M13708 3631
L14265 3631
" />
<path d="M15084 3631
L15641 3631
" />
<path d="M13713 3615
L14265 3615
" />
<path d="M15084 3615
L15636 3615
" />
<path d="M13719 3600
L14265 3600
" />
<path d="M15084 3600
L15631 3600
" />
<path d="M13724 3584
L14265 3584
" />
<path d="M15084 3584
L15625 3584
" />
<path d="M13731 3568
L14265 3568
" />
<path d="M15084 3568
L15619 3568
" />
<path d="M13737 3552
L14265 3552
" />
<path d="M15084 3552
L15612 3552
" />
<path d="M13744 3537
L14265 3537
" />
<path d="M15084 3537
L15606 3537
" />
<path d="M13750 3521
L14265 3521
" />
<path d="M15084 3521
L15599 3521
" />
<path d="M13758 3505
L14265 3505
" />
<path d="M15084 3505
L15592 3505
" />
<path d="M13765 3489
L14265 3489
" />
<path d="M15084 3489
L15584 3489
" />
<path d="M13773 3474
L14265 3474
" />
<path d="M15084 3474
L15576 3474
" />
<path d="M13782 3458
L14265 3458
" />
<path d="M15084 3458
L15568 3458
" />
<path d="M13790 3442
L14265 3442
" />
<path d="M15084 3442
L15559 3442
" />
<path d="M13799 3426
L14265 3426
" />
<path d="M15084 3426
L15550 3426
" />
<path d="M13809 3411
L14265 3411
" />
<path d="M15084 3411
L15541 3411
" />
<path d="M13818 3395
L14265 3395
" />
<path d="M15084 3395
L15531 3395
" />
<path d="M13829 3379
L14265 3379
" />
<path d="M15084 3379
L15521 3379
" />
<path d="M13839 3363
L14265 3363
" />
<path d="M15084 3363
L15510 3363
" />
<path d="M13850 3348
L14265 3348
" />
<path d="M15084 3348
L15500 3348
" />
<path d="M13862 3332
L14265 3332
" />
<path d="M15084 3332
L15488 3332
" />
<path d="M13874 3316
L14265 3316
" />
<path d="M15084 3316
L15476 3316
" />
<path d="M13886 3300
L14265 3300
" />
<path d="M15084 3300
L15464 3300
" />
<path d="M13899 3285
L14265 3285
" />
<path d="M15084 3285
L15451 3285
" />
<path d="M13912 3269
L14265 3269
" />
<path d="M15084 3269
L15437 3269
" />
<path d="M13926 3253
L14265 3253
" />
<path d="M15084 3253
L15423 3253
" />
<path d="M13941 3237
L14265 3237
" />
<path d="M15084 3237
L15409 3237
" />
<path d="M13956 3222
L14265 3222
" />
<path d="M15084 3222
L15394 3222
" />
<path d="M13972 3206
L14265 3206
" />
<path d="M15084 3206
L15377 3206
" />
<path d="M13988 3190
L14265 3190
" />
<path d="M15084 3190
L15361 3190
" />
<path d="M14006 3174
L14265 3174
" />
<path d="M15084 3174
L15344 3174
" />
<path d="M14024 3159
L14265 3159
" />
<path d="M15084 3159
L15325 3159
" />
<path d="M14043 3143
L14265 3143
" />
<path d="M15084 3143
L15307 3143
" />
<path d="M14063 3127
L14265 3127
" />
<path d="M15084 3127
L15287 3127
" />
<path d="M14084 3111
L14265 3111
" />
<path d="M15084 3111
L15265 3111
" />
<path d="M14107 3096
L14265 3096
" />
<path d="M15084 3096
L15243 3096
" />
<path d="M14130 3080
L14265 3080
" />
<path d="M15084 3080
L15219 3080
" />
<path d="M14155 3064
L14265 3064
" />
<path d="M15084 3064
L15194 3064
" />
<path d="M14182 3048
L14265 3048
" />
<path d="M15084 3048
L15167 3048
" />
<path d="M14211 3033
L15138 3033
" />
<path d="M14242 3017
L15107 3017
" />
<path d="M14277 3001
L15073 3001
" />
<path d="M14314 2985
L15035 2985
" />
<path d="M14358 2970
L14992 2970
" />
<path d="M14408 2954
L14941 2954
" />
<path d="M14471 2938
L14879 2938
" />
<path d="M14563 2922
L14787 2922
" />
<path d="M14094 5051
L14094 4854
" />
<path d="M13996 4952
L14192 4952
" />
<path d="M5698 4118
L5698 4163
" />
<circle cx="5698.82" cy="3596.46" r="522.193" /> 
<circle cx="4517.72" cy="4572.84" r="522.193" /> 
<path d="M4517 4050
L4517 4005
" />
<path d="M11938 1482
L12067 1482
" />
<path d="M11938 1883
L12067 1883
" />
<circle cx="5127.95" cy="17588.6" r="1031.5" /> 
<path d="M5127 18604
L5127 16572
" />
<path d="M5112 18604
L5112 16572
" />
<path d="M5096 18603
L5096 16573
" />
<path d="M5080 18603
L5080 16573
" />
<path d="M5064 18602
L5064 16574
" />
<path d="M5049 18601
L5049 16575
" />
<path d="M5033 18600
L5033 17998
" />
<path d="M5033 17179
L5033 16577
" />
<path d="M5017 18598
L5017 17998
" />
<path d="M5017 17179
L5017 16578
" />
<path d="M5001 18596
L5001 17998
" />
<path d="M5001 17179
L5001 16580
" />
<path d="M4986 18594
L4986 17998
" />
<path d="M4986 17179
L4986 16582
" />
<path d="M4970 18592
L4970 17998
" />
<path d="M4970 17179
L4970 16584
" />
<path d="M4954 18589
L4954 17998
" />
<path d="M4954 17179
L4954 16587
" />
<path d="M4938 18587
L4938 17998
" />
<path d="M4938 17179
L4938 16590
" />
<path d="M4923 18583
L4923 17998
" />
<path d="M4923 17179
L4923 16593
" />
<path d="M4907 18580
L4907 17998
" />
<path d="M4907 17179
L4907 16596
" />
<path d="M4891 18577
L4891 17998
" />
<path d="M4891 17179
L4891 16600
" />
<path d="M4875 18573
L4875 17998
" />
<path d="M4875 17179
L4875 16603
" />
<path d="M4860 18569
L4860 17998
" />
<path d="M4860 17179
L4860 16607
" />
<path d="M4844 18564
L4844 17998
" />
<path d="M4844 17179
L4844 16612
" />
<path d="M4828 18560
L4828 17998
" />
<path d="M4828 17179
L4828 16616
" />
<path d="M4812 18555
L4812 17998
" />
<path d="M4812 17179
L4812 16622
" />
<path d="M4796 18550
L4796 17998
" />
<path d="M4796 17179
L4796 16627
" />
<path d="M4781 18544
L4781 17998
" />
<path d="M4781 17179
L4781 16632
" />
<path d="M4765 18538
L4765 17998
" />
<path d="M4765 17179
L4765 16638
" />
<path d="M4749 18532
L4749 17998
" />
<path d="M4749 17179
L4749 16644
" />
<path d="M4733 18526
L4733 17998
" />
<path d="M4733 17179
L4733 16650
" />
<path d="M4718 18519
L4718 17998
" />
<path d="M4718 17179
L4718 16657
" />
<path d="M4702 18512
L4702 17998
" />
<path d="M4702 17179
L4702 16664
" />
<path d="M4686 18505
L4686 17998
" />
<path d="M4686 17179
L4686 16671
" />
<path d="M4670 18498
L4670 17998
" />
<path d="M4670 17179
L4670 16679
" />
<path d="M4655 18490
L4655 17998
" />
<path d="M4655 17179
L4655 16687
" />
<path d="M4639 18481
L4639 17998
" />
<path d="M4639 17179
L4639 16695
" />
<path d="M4623 18473
L4623 17998
" />
<path d="M4623 17179
L4623 16703
" />
<path d="M4607 18464
L4607 17998
" />
<path d="M4607 17179
L4607 16712
" />
<path d="M4592 18454
L4592 17998
" />
<path d="M4592 17179
L4592 16722
" />
<path d="M4576 18444
L4576 17998
" />
<path d="M4576 17179
L4576 16732
" />
<path d="M4560 18434
L4560 17998
" />
<path d="M4560 17179
L4560 16742
" />
<path d="M4544 18424
L4544 17998
" />
<path d="M4544 17179
L4544 16753
" />
<path d="M4529 18413
L4529 17998
" />
<path d="M4529 17179
L4529 16763
" />
<path d="M4513 18401
L4513 17998
" />
<path d="M4513 17179
L4513 16775
" />
<path d="M4497 18389
L4497 17998
" />
<path d="M4497 17179
L4497 16787
" />
<path d="M4481 18377
L4481 17998
" />
<path d="M4481 17179
L4481 16799
" />
<path d="M4466 18364
L4466 17998
" />
<path d="M4466 17179
L4466 16812
" />
<path d="M4450 18351
L4450 17998
" />
<path d="M4450 17179
L4450 16825
" />
<path d="M4434 18337
L4434 17998
" />
<path d="M4434 17179
L4434 16840
" />
<path d="M4418 18322
L4418 17998
" />
<path d="M4418 17179
L4418 16854
" />
<path d="M4403 18307
L4403 17998
" />
<path d="M4403 17179
L4403 16869
" />
<path d="M4387 18291
L4387 17998
" />
<path d="M4387 17179
L4387 16885
" />
<path d="M4371 18274
L4371 17998
" />
<path d="M4371 17179
L4371 16902
" />
<path d="M4355 18257
L4355 17998
" />
<path d="M4355 17179
L4355 16919
" />
<path d="M4340 18239
L4340 17998
" />
<path d="M4340 17179
L4340 16937
" />
<path d="M4324 18220
L4324 17998
" />
<path d="M4324 17179
L4324 16956
" />
<path d="M4308 18200
L4308 17998
" />
<path d="M4308 17179
L4308 16976
" />
<path d="M4292 18179
L4292 17998
" />
<path d="M4292 17179
L4292 16998
" />
<path d="M4277 18156
L4277 17998
" />
<path d="M4277 17179
L4277 17020
" />
<path d="M4261 18133
L4261 17998
" />
<path d="M4261 17179
L4261 17044
" />
<path d="M4245 18107
L4245 17998
" />
<path d="M4245 17179
L4245 17069
" />
<path d="M4229 18081
L4229 17998
" />
<path d="M4229 17179
L4229 17096
" />
<path d="M4214 18052
L4214 17124
" />
<path d="M4198 18020
L4198 17156
" />
<path d="M4182 17986
L4182 17190
" />
<path d="M4166 17948
L4166 17228
" />
<path d="M4151 17905
L4151 17271
" />
<path d="M4135 17855
L4135 17322
" />
<path d="M4119 17792
L4119 17384
" />
<path d="M4103 17700
L4103 17476
" />
<path d="M6232 18169
L6035 18169
" />
<path d="M6133 18267
L6133 18070
" />
<path d="M15301.6 5792.91 A2074.87 2074.87 0.0 0 0 13772.8 5159.7 " />
<path d="M15846.1 7630.32 A2075.15 2075.15 0.0 0 0 15822.6 6732.33 " />
<path d="M11795.7 7735.83 A2074.92 2074.92 0.0 0 0 15398.3 8568.3 " />
<path d="M13809.1 5159.45 A2074.8 2074.8 0.0 0 0 11824.9 6627.64 " />
<path d="M4714.57 9348.43 A2074.8 2074.8 0.0 0 0 6698.71 7880.24 " />
<path d="M6727.95 6772.05 A2074.92 2074.92 0.0 0 0 3125.35 5939.58 " />
<path d="M2677.56 6877.56 A2075.15 2075.15 0.0 0 0 2701.03 7775.54 " />
<path d="M3222.05 8714.96 A2074.87 2074.87 0.0 0 0 4750.8 9348.17 " />
<path d="M17797 13395
L16379 13395
" />
<path d="M17088.6 15147.6 A1023.62 1023.62 0.0 0 0 17812.4 13400.2 " />
<path d="M16364.8 13400.2 A1023.62 1023.62 0.0 0 0 17088.6 15147.6 " />
</g>
<g style="fill:#000000; fill-opacity:0.0; 
stroke:#000000; stroke-width:59.0551; stroke-opacity:1; 
stroke-linecap:round; stroke-linejoin:round;">
<path d="M8425 12372
L8425 12381
" />
<path d="M10059 12372
L10059 12417
" />
<path d="M10059 15875
L10059 15830
" />
<path d="M8425 15875
L8425 15830
" />
<path d="M8425 12372
L10059 12372
" />
<path d="M8425 15875
L10059 15875
" />
<path d="M8425 12381
L7883 12381
" />
</g>
<g style="fill:#000000; fill-opacity:0.0; 
stroke:#000000; stroke-width:47.2441; stroke-opacity:1; 
stroke-linecap:round; stroke-linejoin:round;">
<path d="M12062 2742
L11933 2742
" />
<path d="M12062 3143
L11933 3143
" />
<path d="M6500 1875
L6629 1875
" />
<path d="M6500 2277
L6629 2277
" />
<path d="M6442 3823
L6442 3951
" />
<path d="M6844 3823
L6844 3951
" />
<path d="M6500 2505
L6629 2505
" />
<path d="M6500 2907
L6629 2907
" />
<path d="M3852 4586
L3852 4458
" />
<path d="M3450 4586
L3450 4458
" />
<path d="M9965 11639
L10093 11639
" />
<path d="M9965 12041
L10093 12041
" />
<circle cx="9222.44" cy="5856.3" r="1031.5" /> 
<path d="M9222 6872
L9222 4840
" />
<path d="M9206 6872
L9206 4840
" />
<path d="M9190 6871
L9190 4840
" />
<path d="M9175 6871
L9175 4841
" />
<path d="M9159 6870
L9159 4842
" />
<path d="M9143 6869
L9143 4843
" />
<path d="M9127 6867
L9127 6265
" />
<path d="M9127 5446
L9127 4844
" />
<path d="M9112 6866
L9112 6265
" />
<path d="M9112 5446
L9112 4846
" />
<path d="M9096 6864
L9096 6265
" />
<path d="M9096 5446
L9096 4848
" />
<path d="M9080 6862
L9080 6265
" />
<path d="M9080 5446
L9080 4850
" />
<path d="M9064 6860
L9064 6265
" />
<path d="M9064 5446
L9064 4852
" />
<path d="M9049 6857
L9049 6265
" />
<path d="M9049 5446
L9049 4855
" />
<path d="M9033 6854
L9033 6265
" />
<path d="M9033 5446
L9033 4857
" />
<path d="M9017 6851
L9017 6265
" />
<path d="M9017 5446
L9017 4861
" />
<path d="M9001 6848
L9001 6265
" />
<path d="M9001 5446
L9001 4864
" />
<path d="M8986 6844
L8986 6265
" />
<path d="M8986 5446
L8986 4867
" />
<path d="M8970 6840
L8970 6265
" />
<path d="M8970 5446
L8970 4871
" />
<path d="M8954 6837
L8954 6265
" />
<path d="M8954 5446
L8954 4875
" />
<path d="M8938 6832
L8938 6265
" />
<path d="M8938 5446
L8938 4879
" />
<path d="M8922 6827
L8922 6265
" />
<path d="M8922 5446
L8922 4884
" />
<path d="M8907 6822
L8907 6265
" />
<path d="M8907 5446
L8907 4889
" />
<path d="M8891 6817
L8891 6265
" />
<path d="M8891 5446
L8891 4894
" />
<path d="M8875 6812
L8875 6265
" />
<path d="M8875 5446
L8875 4900
" />
<path d="M8859 6806
L8859 6265
" />
<path d="M8859 5446
L8859 4905
" />
<path d="M8844 6800
L8844 6265
" />
<path d="M8844 5446
L8844 4912
" />
<path d="M8828 6794
L8828 6265
" />
<path d="M8828 5446
L8828 4918
" />
<path d="M8812 6787
L8812 6265
" />
<path d="M8812 5446
L8812 4925
" />
<path d="M8796 6780
L8796 6265
" />
<path d="M8796 5446
L8796 4931
" />
<path d="M8781 6773
L8781 6265
" />
<path d="M8781 5446
L8781 4939
" />
<path d="M8765 6765
L8765 6265
" />
<path d="M8765 5446
L8765 4946
" />
<path d="M8749 6757
L8749 6265
" />
<path d="M8749 5446
L8749 4954
" />
<path d="M8733 6749
L8733 6265
" />
<path d="M8733 5446
L8733 4963
" />
<path d="M8718 6740
L8718 6265
" />
<path d="M8718 5446
L8718 4971
" />
<path d="M8702 6731
L8702 6265
" />
<path d="M8702 5446
L8702 4980
" />
<path d="M8686 6722
L8686 6265
" />
<path d="M8686 5446
L8686 4990
" />
<path d="M8670 6712
L8670 6265
" />
<path d="M8670 5446
L8670 5000
" />
<path d="M8655 6702
L8655 6265
" />
<path d="M8655 5446
L8655 5010
" />
<path d="M8639 6691
L8639 6265
" />
<path d="M8639 5446
L8639 5020
" />
<path d="M8623 6681
L8623 6265
" />
<path d="M8623 5446
L8623 5031
" />
<path d="M8607 6669
L8607 6265
" />
<path d="M8607 5446
L8607 5043
" />
<path d="M8592 6657
L8592 6265
" />
<path d="M8592 5446
L8592 5055
" />
<path d="M8576 6645
L8576 6265
" />
<path d="M8576 5446
L8576 5067
" />
<path d="M8560 6632
L8560 6265
" />
<path d="M8560 5446
L8560 5080
" />
<path d="M8544 6618
L8544 6265
" />
<path d="M8544 5446
L8544 5093
" />
<path d="M8529 6604
L8529 6265
" />
<path d="M8529 5446
L8529 5107
" />
<path d="M8513 6590
L8513 6265
" />
<path d="M8513 5446
L8513 5122
" />
<path d="M8497 6575
L8497 6265
" />
<path d="M8497 5446
L8497 5137
" />
<path d="M8481 6559
L8481 6265
" />
<path d="M8481 5446
L8481 5153
" />
<path d="M8466 6542
L8466 6265
" />
<path d="M8466 5446
L8466 5170
" />
<path d="M8450 6525
L8450 6265
" />
<path d="M8450 5446
L8450 5187
" />
<path d="M8434 6507
L8434 6265
" />
<path d="M8434 5446
L8434 5205
" />
<path d="M8418 6488
L8418 6265
" />
<path d="M8418 5446
L8418 5224
" />
<path d="M8403 6468
L8403 6265
" />
<path d="M8403 5446
L8403 5244
" />
<path d="M8387 6446
L8387 6265
" />
<path d="M8387 5446
L8387 5265
" />
<path d="M8371 6424
L8371 6265
" />
<path d="M8371 5446
L8371 5288
" />
<path d="M8355 6400
L8355 6265
" />
<path d="M8355 5446
L8355 5311
" />
<path d="M8340 6375
L8340 6265
" />
<path d="M8340 5446
L8340 5337
" />
<path d="M8324 6348
L8324 6265
" />
<path d="M8324 5446
L8324 5363
" />
<path d="M8308 6320
L8308 5392
" />
<path d="M8292 6288
L8292 5424
" />
<path d="M8277 6254
L8277 5458
" />
<path d="M8261 6216
L8261 5496
" />
<path d="M8245 6173
L8245 5539
" />
<path d="M8229 6122
L8229 5589
" />
<path d="M8214 6060
L8214 5652
" />
<path d="M8198 5968
L8198 5744
" />
<path d="M10326 6437
L10129 6437
" />
<path d="M10228 6535
L10228 6338
" />
<path d="M18110 5381
L17913 5381
" />
<path d="M18011 5283
L18011 5480
" />
<path d="M17542 7411
L17319 7411
" />
<path d="M17635 7396
L17227 7396
" />
<path d="M17697 7380
L17164 7380
" />
<path d="M17748 7364
L17114 7364
" />
<path d="M17791 7348
L17070 7348
" />
<path d="M17829 7333
L17033 7333
" />
<path d="M17863 7317
L16998 7317
" />
<path d="M17894 7301
L16967 7301
" />
<path d="M17021 7285
L16938 7285
" />
<path d="M17923 7285
L17840 7285
" />
<path d="M17021 7270
L16911 7270
" />
<path d="M17950 7270
L17840 7270
" />
<path d="M17021 7254
L16886 7254
" />
<path d="M17975 7254
L17840 7254
" />
<path d="M17021 7238
L16862 7238
" />
<path d="M17999 7238
L17840 7238
" />
<path d="M17021 7222
L16840 7222
" />
<path d="M18021 7222
L17840 7222
" />
<path d="M17021 7207
L16819 7207
" />
<path d="M18042 7207
L17840 7207
" />
<path d="M17021 7191
L16799 7191
" />
<path d="M18062 7191
L17840 7191
" />
<path d="M17021 7175
L16780 7175
" />
<path d="M18081 7175
L17840 7175
" />
<path d="M17021 7159
L16762 7159
" />
<path d="M18100 7159
L17840 7159
" />
<path d="M17021 7144
L16744 7144
" />
<path d="M18117 7144
L17840 7144
" />
<path d="M17021 7128
L16728 7128
" />
<path d="M18133 7128
L17840 7128
" />
<path d="M17021 7112
L16712 7112
" />
<path d="M18150 7112
L17840 7112
" />
<path d="M17021 7096
L16697 7096
" />
<path d="M18164 7096
L17840 7096
" />
<path d="M17021 7081
L16682 7081
" />
<path d="M18179 7081
L17840 7081
" />
<path d="M17021 7065
L16668 7065
" />
<path d="M18193 7065
L17840 7065
" />
<path d="M17021 7049
L16655 7049
" />
<path d="M18207 7049
L17840 7049
" />
<path d="M17021 7033
L16642 7033
" />
<path d="M18220 7033
L17840 7033
" />
<path d="M17021 7018
L16629 7018
" />
<path d="M18232 7018
L17840 7018
" />
<path d="M17021 7002
L16618 7002
" />
<path d="M18244 7002
L17840 7002
" />
<path d="M17021 6986
L16606 6986
" />
<path d="M18255 6986
L17840 6986
" />
<path d="M17021 6970
L16595 6970
" />
<path d="M18266 6970
L17840 6970
" />
<path d="M17021 6955
L16585 6955
" />
<path d="M18277 6955
L17840 6955
" />
<path d="M17021 6939
L16574 6939
" />
<path d="M18287 6939
L17840 6939
" />
<path d="M17021 6923
L16564 6923
" />
<path d="M18297 6923
L17840 6923
" />
<path d="M17021 6907
L16555 6907
" />
<path d="M18306 6907
L17840 6907
" />
<path d="M17021 6892
L16546 6892
" />
<path d="M18315 6892
L17840 6892
" />
<path d="M17021 6876
L16538 6876
" />
<path d="M18324 6876
L17840 6876
" />
<path d="M17021 6860
L16529 6860
" />
<path d="M18332 6860
L17840 6860
" />
<path d="M17021 6844
L16521 6844
" />
<path d="M18340 6844
L17840 6844
" />
<path d="M17021 6829
L16514 6829
" />
<path d="M18348 6829
L17840 6829
" />
<path d="M17021 6813
L16506 6813
" />
<path d="M18355 6813
L17840 6813
" />
<path d="M17021 6797
L16500 6797
" />
<path d="M18362 6797
L17840 6797
" />
<path d="M17021 6781
L16493 6781
" />
<path d="M18368 6781
L17840 6781
" />
<path d="M17021 6766
L16487 6766
" />
<path d="M18375 6766
L17840 6766
" />
<path d="M17021 6750
L16480 6750
" />
<path d="M18381 6750
L17840 6750
" />
<path d="M17021 6734
L16475 6734
" />
<path d="M18387 6734
L17840 6734
" />
<path d="M17021 6718
L16469 6718
" />
<path d="M18392 6718
L17840 6718
" />
<path d="M17021 6703
L16464 6703
" />
<path d="M18397 6703
L17840 6703
" />
<path d="M17021 6687
L16459 6687
" />
<path d="M18402 6687
L17840 6687
" />
<path d="M17021 6671
L16454 6671
" />
<path d="M18407 6671
L17840 6671
" />
<path d="M17021 6655
L16450 6655
" />
<path d="M18411 6655
L17840 6655
" />
<path d="M17021 6639
L16446 6639
" />
<path d="M18415 6639
L17840 6639
" />
<path d="M17021 6624
L16442 6624
" />
<path d="M18419 6624
L17840 6624
" />
<path d="M17021 6608
L16438 6608
" />
<path d="M18423 6608
L17840 6608
" />
<path d="M17021 6592
L16435 6592
" />
<path d="M18426 6592
L17840 6592
" />
<path d="M17021 6576
L16432 6576
" />
<path d="M18429 6576
L17840 6576
" />
<path d="M17021 6561
L16429 6561
" />
<path d="M18432 6561
L17840 6561
" />
<path d="M17021 6545
L16427 6545
" />
<path d="M18435 6545
L17840 6545
" />
<path d="M17021 6529
L16424 6529
" />
<path d="M18437 6529
L17840 6529
" />
<path d="M17021 6513
L16422 6513
" />
<path d="M18439 6513
L17840 6513
" />
<path d="M17021 6498
L16421 6498
" />
<path d="M18440 6498
L17840 6498
" />
<path d="M17021 6482
L16419 6482
" />
<path d="M18442 6482
L17840 6482
" />
<path d="M18444 6466
L16418 6466
" />
<path d="M18445 6450
L16416 6450
" />
<path d="M18446 6435
L16416 6435
" />
<path d="M18446 6419
L16415 6419
" />
<path d="M18446 6403
L16415 6403
" />
<path d="M18446 6387
L16415 6387
" />
<circle cx="17431.1" cy="6387.8" r="1031.5" /> 
<circle cx="15797.2" cy="10423.2" r="1031.5" /> 
<path d="M15797 9407
L15797 11438
" />
<path d="M15812 9407
L15812 11438
" />
<path d="M15828 9407
L15828 11438
" />
<path d="M15844 9408
L15844 11438
" />
<path d="M15860 9409
L15860 11437
" />
<path d="M15875 9410
L15875 11436
" />
<path d="M15891 9411
L15891 10013
" />
<path d="M15891 10832
L15891 11434
" />
<path d="M15907 9413
L15907 10013
" />
<path d="M15907 10832
L15907 11433
" />
<path d="M15923 9414
L15923 10013
" />
<path d="M15923 10832
L15923 11431
" />
<path d="M15938 9416
L15938 10013
" />
<path d="M15938 10832
L15938 11429
" />
<path d="M15954 9419
L15954 10013
" />
<path d="M15954 10832
L15954 11427
" />
<path d="M15970 9422
L15970 10013
" />
<path d="M15970 10832
L15970 11424
" />
<path d="M15986 9424
L15986 10013
" />
<path d="M15986 10832
L15986 11421
" />
<path d="M16001 9427
L16001 10013
" />
<path d="M16001 10832
L16001 11418
" />
<path d="M16017 9431
L16017 10013
" />
<path d="M16017 10832
L16017 11415
" />
<path d="M16033 9434
L16033 10013
" />
<path d="M16033 10832
L16033 11411
" />
<path d="M16049 9438
L16049 10013
" />
<path d="M16049 10832
L16049 11407
" />
<path d="M16064 9442
L16064 10013
" />
<path d="M16064 10832
L16064 11403
" />
<path d="M16081 9446
L16081 10013
" />
<path d="M16081 10832
L16081 11399
" />
<path d="M16096 9451
L16096 10013
" />
<path d="M16096 10832
L16096 11394
" />
<path d="M16112 9456
L16112 10013
" />
<path d="M16112 10832
L16112 11389
" />
<path d="M16128 9461
L16128 10013
" />
<path d="M16128 10832
L16128 11384
" />
<path d="M16144 9467
L16144 10013
" />
<path d="M16144 10832
L16144 11379
" />
<path d="M16159 9472
L16159 10013
" />
<path d="M16159 10832
L16159 11373
" />
<path d="M16175 9479
L16175 10013
" />
<path d="M16175 10832
L16175 11367
" />
<path d="M16191 9485
L16191 10013
" />
<path d="M16191 10832
L16191 11361
" />
<path d="M16207 9492
L16207 10013
" />
<path d="M16207 10832
L16207 11354
" />
<path d="M16222 9498
L16222 10013
" />
<path d="M16222 10832
L16222 11347
" />
<path d="M16238 9506
L16238 10013
" />
<path d="M16238 10832
L16238 11340
" />
<path d="M16254 9513
L16254 10013
" />
<path d="M16254 10832
L16254 11332
" />
<path d="M16270 9521
L16270 10013
" />
<path d="M16270 10832
L16270 11324
" />
<path d="M16285 9530
L16285 10013
" />
<path d="M16285 10832
L16285 11316
" />
<path d="M16301 9538
L16301 10013
" />
<path d="M16301 10832
L16301 11307
" />
<path d="M16317 9547
L16317 10013
" />
<path d="M16317 10832
L16317 11298
" />
<path d="M16333 9557
L16333 10013
" />
<path d="M16333 10832
L16333 11289
" />
<path d="M16348 9566
L16348 10013
" />
<path d="M16348 10832
L16348 11279
" />
<path d="M16364 9577
L16364 10013
" />
<path d="M16364 10832
L16364 11269
" />
<path d="M16380 9587
L16380 10013
" />
<path d="M16380 10832
L16380 11258
" />
<path d="M16396 9598
L16396 10013
" />
<path d="M16396 10832
L16396 11248
" />
<path d="M16411 9610
L16411 10013
" />
<path d="M16411 10832
L16411 11236
" />
<path d="M16427 9622
L16427 10013
" />
<path d="M16427 10832
L16427 11224
" />
<path d="M16443 9634
L16443 10013
" />
<path d="M16443 10832
L16443 11212
" />
<path d="M16459 9647
L16459 10013
" />
<path d="M16459 10832
L16459 11199
" />
<path d="M16474 9660
L16474 10013
" />
<path d="M16474 10832
L16474 11185
" />
<path d="M16490 9674
L16490 10013
" />
<path d="M16490 10832
L16490 11171
" />
<path d="M16506 9689
L16506 10013
" />
<path d="M16506 10832
L16506 11157
" />
<path d="M16522 9704
L16522 10013
" />
<path d="M16522 10832
L16522 11142
" />
<path d="M16537 9720
L16537 10013
" />
<path d="M16537 10832
L16537 11125
" />
<path d="M16553 9737
L16553 10013
" />
<path d="M16553 10832
L16553 11109
" />
<path d="M16569 9754
L16569 10013
" />
<path d="M16569 10832
L16569 11092
" />
<path d="M16585 9772
L16585 10013
" />
<path d="M16585 10832
L16585 11074
" />
<path d="M16600 9791
L16600 10013
" />
<path d="M16600 10832
L16600 11055
" />
<path d="M16616 9811
L16616 10013
" />
<path d="M16616 10832
L16616 11035
" />
<path d="M16632 9832
L16632 10013
" />
<path d="M16632 10832
L16632 11013
" />
<path d="M16648 9855
L16648 10013
" />
<path d="M16648 10832
L16648 10991
" />
<path d="M16663 9878
L16663 10013
" />
<path d="M16663 10832
L16663 10967
" />
<path d="M16679 9903
L16679 10013
" />
<path d="M16679 10832
L16679 10942
" />
<path d="M16695 9930
L16695 10013
" />
<path d="M16695 10832
L16695 10915
" />
<path d="M16711 9959
L16711 10887
" />
<path d="M16726 9990
L16726 10855
" />
<path d="M16742 10025
L16742 10821
" />
<path d="M16758 10062
L16758 10783
" />
<path d="M16774 10106
L16774 10740
" />
<path d="M16789 10156
L16789 10689
" />
<path d="M16805 10219
L16805 10627
" />
<path d="M16821 10311
L16821 10535
" />
<path d="M14693 9842
L14889 9842
" />
<path d="M14791 9744
L14791 9940
" />
<path d="M3694 13305
L3694 12423
" />
<path d="M3600 13305
L3600 12423
" />
<path d="M3647 13305
L3647 12423
" />
<path d="M2005 12864
L2261 12864
" />
<path d="M4187 12864
L3931 12864
" />
<path d="M2261 13305
L3931 13305
" />
<path d="M2261 12423
L2261 13305
" />
<path d="M3931 12423
L2261 12423
" />
<path d="M3931 13305
L3931 12423
" />
<path d="M12899 14234
L12899 15116
" />
<path d="M12899 15116
L14568 15116
" />
<path d="M14568 15116
L14568 14234
" />
<path d="M14568 14234
L12899 14234
" />
<path d="M12643 14675
L12899 14675
" />
<path d="M14824 14675
L14568 14675
" />
<path d="M13183 14234
L13183 15116
" />
<path d="M13230 14234
L13230 15116
" />
<path d="M13135 14234
L13135 15116
" />
<path d="M2505 13919
L2505 14801
" />
<path d="M2600 13919
L2600 14801
" />
<path d="M2553 13919
L2553 14801
" />
<path d="M4194 14360
L3938 14360
" />
<path d="M2013 14360
L2269 14360
" />
<path d="M3938 13919
L2269 13919
" />
<path d="M3938 14801
L3938 13919
" />
<path d="M2269 14801
L3938 14801
" />
<path d="M2269 13919
L2269 14801
" />
<path d="M3931 11809
L3931 10927
" />
<path d="M3931 10927
L2261 10927
" />
<path d="M2261 10927
L2261 11809
" />
<path d="M2261 11809
L3931 11809
" />
<path d="M4187 11368
L3931 11368
" />
<path d="M2005 11368
L2261 11368
" />
<path d="M3647 11809
L3647 10927
" />
<path d="M3600 11809
L3600 10927
" />
<path d="M3694 11809
L3694 10927
" />
</g>
<g style="fill:#000000; fill-opacity:0.0; 
stroke:#000000; stroke-width:59.0551; stroke-opacity:1; 
stroke-linecap:round; stroke-linejoin:round;">
<path d="M8425 797
L8425 807
" />
<path d="M10059 797
L10059 842
" />
<path d="M10059 4301
L10059 4255
" />
<path d="M8425 4301
L8425 4255
" />
<path d="M8425 797
L10059 797
" />
<path d="M8425 4301
L10059 4301
" />
<path d="M8425 807
L7883 807
" />
<path d="M15295 15984
L15275 15984
" />
<path d="M15295 17618
L15238 17618
" />
<path d="M13267 17618
L13324 17618
" />
<path d="M13267 15984
L13324 15984
" />
<path d="M15295 15984
L15295 17618
" />
<path d="M13267 15984
L13267 17618
" />
<path d="M15275 15984
L15275 15433
" />
</g>
<g style="fill:#000000; fill-opacity:0.0; 
stroke:#000000; stroke-width:47.2441; stroke-opacity:1; 
stroke-linecap:round; stroke-linejoin:round;">
<path d="M8648.24 9699.42 A1023.62 1023.62 0.0 0 0 9372.05 11446.9 " />
<path d="M9372.05 11446.9 A1023.62 1023.62 0.0 0 0 10095.9 9699.42 " />
<path d="M10080 9694
L8663 9694
" />
<path d="M12785 9694
L11368 9694
" />
<path d="M12076.8 11446.9 A1023.62 1023.62 0.0 0 0 12800.6 9699.42 " />
<path d="M11353 9699.42 A1023.62 1023.62 0.0 0 0 12076.8 11446.9 " />
<path d="M5892.33 9699.42 A1023.62 1023.62 0.0 0 0 6616.14 11446.9 " />
<path d="M6616.14 11446.9 A1023.62 1023.62 0.0 0 0 7339.95 9699.42 " />
<path d="M7324 9694
L5907 9694
" />
<path d="M14596 12135
L13179 12135
" />
<path d="M13887.8 13887.8 A1023.62 1023.62 0.0 0 0 14611.6 12140.4 " />
<path d="M13164 12140.4 A1023.62 1023.62 0.0 0 0 13887.8 13887.8 " />
<path d="M1482 6077
L1482 5949
" />
<path d="M1883 6077
L1883 5949
" />
<path d="M12057 2112
L11929 2112
" />
<path d="M12057 2513
L11929 2513
" />
<path d="M5419 15762
L5419 15634
" />
<path d="M5820 15762
L5820 15634
" />
<path d="M16372 12372
L16372 12243
" />
<path d="M15970 12372
L15970 12243
" />
<path d="M11933 852
L12062 852
" />
<path d="M11933 1253
L12062 1253
" />
<path d="M12062 3372
L11933 3372
" />
<path d="M12062 3773
L11933 3773
" />
<path d="M11938 3923
L12067 3923
" />
<path d="M11938 4324
L12067 4324
" />
<path d="M12455 15419
L12327 15419
" />
<path d="M12455 15820
L12327 15820
" />
<path d="M3164 10387
L3036 10387
" />
<path d="M3164 9986
L3036 9986
" />
<path d="M7151 3823
L7151 3951
" />
<path d="M7553 3823
L7553 3951
" />
<path d="M17283 11639
L17411 11639
" />
<path d="M17283 12041
L17411 12041
" />
<path d="M3064 4581
L3064 4453
" />
<path d="M2663 4581
L2663 4453
" />
<path d="M6944 15348
L6815 15348
" />
<path d="M6944 14946
L6815 14946
" />
<path d="M6500 1017
L6629 1017
" />
<path d="M6500 616
L6629 616
" />
<path d="M11353 12041
L11225 12041
" />
<path d="M11353 11639
L11225 11639
" />
<path d="M13744 9994
L13873 9994
" />
<path d="M13744 9592
L13873 9592
" />
<path d="M11797 12928
L11797 12800
" />
<path d="M12198 12928
L12198 12800
" />
<path d="M10616 6028
L10616 6156
" />
<path d="M11017 6028
L11017 6156
" />
<path d="M6500 1246
L6629 1246
" />
<path d="M6500 1647
L6629 1647
" />
<path d="M12057 4553
L11929 4553
" />
<path d="M12057 4954
L11929 4954
" />
<path d="M17283 12505
L17411 12505
" />
<path d="M17283 12907
L17411 12907
" />
</g>
<g style="fill:#000000; fill-opacity:0.0; 
stroke:#000000; stroke-width:59.0551; stroke-opacity:1; 
stroke-linecap:round; stroke-linejoin:round;">
<path d="M13822 2847
L13803 2866
L13747 2884
L13709 2884
L13653 2866
L13615 2828
L13597 2791
L13578 2716
L13578 2659
L13597 2584
L13615 2547
L13653 2509
L13709 2491
L13747 2491
L13803 2509
L13822 2528
" />
<path d="M14159 2491
L14084 2491
L14047 2509
L14028 2528
L13990 2584
L13972 2659
L13972 2809
L13990 2847
L14009 2866
L14047 2884
L14122 2884
L14159 2866
L14178 2847
L14197 2809
L14197 2716
L14178 2678
L14159 2659
L14122 2641
L14047 2641
L14009 2659
L13990 2678
L13972 2716
" />
<path d="M5719 2839
L5325 2839
L5325 2746
L5344 2689
L5381 2652
L5419 2633
L5494 2614
L5550 2614
L5625 2633
L5663 2652
L5700 2689
L5719 2746
L5719 2839
" />
<path d="M5363 2464
L5344 2446
L5325 2408
L5325 2314
L5344 2277
L5363 2258
L5400 2239
L5438 2239
L5494 2258
L5719 2483
L5719 2239
" />
<path d="M6113 5329
L5719 5329
" />
<path d="M6113 5104
L5888 5273
" />
<path d="M5719 5104
L5944 5329
" />
<path d="M4695 2997
L4302 2997
L4302 2903
L4320 2847
L4358 2809
L4395 2791
L4470 2772
L4527 2772
L4602 2791
L4639 2809
L4677 2847
L4695 2903
L4695 2997
" />
<path d="M4695 2397
L4695 2622
" />
<path d="M4695 2509
L4302 2509
L4358 2547
L4395 2584
L4414 2622
" />
<path d="M3829 3360
L3435 3360
" />
<path d="M3829 3136
L3604 3304
" />
<path d="M3435 3136
L3660 3360
" />
<path d="M14717 1252
L14698 1271
L14642 1290
L14604 1290
L14548 1271
L14511 1234
L14492 1196
L14473 1121
L14473 1065
L14492 990
L14511 952
L14548 915
L14604 896
L14642 896
L14698 915
L14717 934
" />
<path d="M15092 1290
L14867 1290
" />
<path d="M14979 1290
L14979 896
L14942 952
L14904 990
L14867 1009
" />
<path d="M15467 1290
L15242 1290
" />
<path d="M15354 1290
L15354 896
L15317 952
L15279 990
L15242 1009
" />
<path d="M3162 17729
L3143 17747
L3087 17766
L3049 17766
L2993 17747
L2956 17710
L2937 17672
L2918 17597
L2918 17541
L2937 17466
L2956 17429
L2993 17391
L3049 17372
L3087 17372
L3143 17391
L3162 17410
" />
<path d="M3537 17766
L3312 17766
" />
<path d="M3424 17766
L3424 17372
L3387 17429
L3349 17466
L3312 17485
" />
<path d="M3687 17410
L3705 17391
L3743 17372
L3837 17372
L3874 17391
L3893 17410
L3912 17447
L3912 17485
L3893 17541
L3668 17766
L3912 17766
" />
<path d="M9099 19184
L9099 18790
" />
<path d="M9099 18977
L9324 18977
" />
<path d="M9324 19184
L9324 18790
" />
<path d="M9718 19184
L9493 19184
" />
<path d="M9605 19184
L9605 18790
L9568 18846
L9530 18884
L9493 18902
" />
<path d="M4217 19262
L4217 18869
" />
<path d="M4217 19056
L4442 19056
" />
<path d="M4442 19262
L4442 18869
" />
<path d="M4611 18906
L4630 18887
L4667 18869
L4761 18869
L4798 18887
L4817 18906
L4836 18944
L4836 18981
L4817 19037
L4592 19262
L4836 19262
" />
<path d="M6737 19262
L6737 18869
" />
<path d="M6737 19056
L6962 19056
" />
<path d="M6962 19262
L6962 18869
" />
<path d="M7112 18869
L7356 18869
L7224 19019
L7281 19019
L7318 19037
L7337 19056
L7356 19094
L7356 19187
L7337 19225
L7318 19244
L7281 19262
L7168 19262
L7131 19244
L7112 19225
" />
<path d="M11461 19184
L11461 18790
" />
<path d="M11461 18977
L11686 18977
" />
<path d="M11686 19184
L11686 18790
" />
<path d="M12043 18921
L12043 19184
" />
<path d="M11949 18771
L11855 19052
L12099 19052
" />
<path d="M13574 6034
L13443 5846
" />
<path d="M13349 6034
L13349 5640
L13499 5640
L13537 5659
L13555 5678
L13574 5715
L13574 5771
L13555 5809
L13537 5828
L13499 5846
L13349 5846
" />
<path d="M13687 5640
L13818 6034
L13949 5640
" />
<path d="M14287 6034
L14062 6034
" />
<path d="M14174 6034
L14174 5640
L14137 5696
L14099 5734
L14062 5753
" />
<path d="M4480 6113
L4348 5925
" />
<path d="M4255 6113
L4255 5719
L4405 5719
L4442 5738
L4461 5756
L4480 5794
L4480 5850
L4461 5888
L4442 5906
L4405 5925
L4255 5925
" />
<path d="M4592 5719
L4723 6113
L4855 5719
" />
<path d="M4967 5756
L4986 5738
L5023 5719
L5117 5719
L5155 5738
L5173 5756
L5192 5794
L5192 5831
L5173 5888
L4948 6113
L5192 6113
" />
<path d="M16797 15703
L16797 15309
L16891 15309
L16947 15328
L16985 15366
L17004 15403
L17022 15478
L17022 15534
L17004 15609
L16985 15647
L16947 15684
L16891 15703
L16797 15703
" />
<path d="M17154 15309
L17397 15309
L17266 15459
L17322 15459
L17360 15478
L17379 15497
L17397 15534
L17397 15628
L17379 15666
L17360 15684
L17322 15703
L17210 15703
L17172 15684
L17154 15666
" />
<path d="M7918 11861
L7918 12179
L7937 12217
L7956 12236
L7993 12254
L8068 12254
L8106 12236
L8124 12217
L8143 12179
L8143 11861
" />
<path d="M8537 12254
L8312 12254
" />
<path d="M8424 12254
L8424 11861
L8387 11917
L8349 11954
L8312 11973
" />
<path d="M16134 2335
L16115 2354
L16059 2372
L16022 2372
L15965 2354
L15928 2316
L15909 2279
L15890 2204
L15890 2148
L15909 2073
L15928 2035
L15965 1998
L16022 1979
L16059 1979
L16115 1998
L16134 2016
" />
<path d="M16509 2372
L16284 2372
" />
<path d="M16397 2372
L16397 1979
L16359 2035
L16322 2073
L16284 2091
" />
<path d="M16753 1979
L16790 1979
L16828 1998
L16847 2016
L16865 2054
L16884 2129
L16884 2223
L16865 2297
L16847 2335
L16828 2354
L16790 2372
L16753 2372
L16715 2354
L16697 2335
L16678 2297
L16659 2223
L16659 2129
L16678 2054
L16697 2016
L16715 1998
L16753 1979
" />
<path d="M2719 1902
L2701 1921
L2644 1939
L2607 1939
L2551 1921
L2513 1883
L2494 1846
L2476 1771
L2476 1714
L2494 1639
L2513 1602
L2551 1564
L2607 1546
L2644 1546
L2701 1564
L2719 1583
" />
<path d="M2907 1939
L2982 1939
L3019 1921
L3038 1902
L3076 1846
L3094 1771
L3094 1621
L3076 1583
L3057 1564
L3019 1546
L2944 1546
L2907 1564
L2888 1583
L2869 1621
L2869 1714
L2888 1752
L2907 1771
L2944 1789
L3019 1789
L3057 1771
L3076 1752
L3094 1714
" />
<path d="M6784 5055
L6803 5074
L6821 5130
L6821 5168
L6803 5224
L6765 5261
L6728 5280
L6653 5299
L6596 5299
L6521 5280
L6484 5261
L6446 5224
L6428 5168
L6428 5130
L6446 5074
L6465 5055
" />
<path d="M6596 4830
L6578 4868
L6559 4887
L6521 4905
L6503 4905
L6465 4887
L6446 4868
L6428 4830
L6428 4755
L6446 4718
L6465 4699
L6503 4680
L6521 4680
L6559 4699
L6578 4718
L6596 4755
L6596 4830
L6615 4868
L6634 4887
L6671 4905
L6746 4905
L6784 4887
L6803 4868
L6821 4830
L6821 4755
L6803 4718
L6784 4699
L6746 4680
L6671 4680
L6634 4699
L6615 4718
L6596 4755
" />
<path d="M2011 2532
L1992 2551
L1936 2569
L1898 2569
L1842 2551
L1804 2513
L1786 2476
L1767 2401
L1767 2344
L1786 2269
L1804 2232
L1842 2194
L1898 2176
L1936 2176
L1992 2194
L2011 2213
" />
<path d="M2142 2176
L2404 2176
L2236 2569
" />
<path d="M2296 4898
L2314 4917
L2333 4973
L2333 5010
L2314 5067
L2277 5104
L2239 5123
L2164 5142
L2108 5142
L2033 5123
L1996 5104
L1958 5067
L1939 5010
L1939 4973
L1958 4917
L1977 4898
" />
<path d="M1939 4542
L1939 4729
L2127 4748
L2108 4729
L2089 4692
L2089 4598
L2108 4560
L2127 4542
L2164 4523
L2258 4523
L2296 4542
L2314 4560
L2333 4598
L2333 4692
L2314 4729
L2296 4748
" />
<path d="M9019 11902
L9000 11921
L8944 11939
L8906 11939
L8850 11921
L8812 11883
L8794 11846
L8775 11771
L8775 11714
L8794 11639
L8812 11602
L8850 11564
L8906 11546
L8944 11546
L9000 11564
L9019 11583
" />
<path d="M9393 11939
L9169 11939
" />
<path d="M9281 11939
L9281 11546
L9244 11602
L9206 11639
L9169 11658
" />
<path d="M9156 7473
L9138 7492
L9081 7510
L9044 7510
L8988 7492
L8950 7454
L8931 7417
L8913 7342
L8913 7285
L8931 7210
L8950 7173
L8988 7135
L9044 7117
L9081 7117
L9138 7135
L9156 7154
" />
<path d="M9306 7154
L9325 7135
L9363 7117
L9456 7117
L9494 7135
L9513 7154
L9531 7192
L9531 7229
L9513 7285
L9288 7510
L9531 7510
" />
<path d="M16656 5209
L16638 5228
L16581 5247
L16544 5247
L16488 5228
L16450 5190
L16431 5153
L16413 5078
L16413 5022
L16431 4947
L16450 4909
L16488 4872
L16544 4853
L16581 4853
L16638 4872
L16656 4890
" />
<path d="M16994 4984
L16994 5247
" />
<path d="M16900 4834
L16806 5115
L17050 5115
" />
<path d="M14688 11587
L14669 11606
L14613 11624
L14575 11624
L14519 11606
L14482 11568
L14463 11531
L14444 11456
L14444 11399
L14463 11324
L14482 11287
L14519 11250
L14575 11231
L14613 11231
L14669 11250
L14688 11268
" />
<path d="M14819 11231
L15063 11231
L14932 11381
L14988 11381
L15025 11399
L15044 11418
L15063 11456
L15063 11549
L15044 11587
L15025 11606
L14988 11624
L14875 11624
L14838 11606
L14819 11587
" />
<path d="M2868 15325
L2868 14932
L2962 14932
L3018 14950
L3056 14988
L3075 15025
L3093 15100
L3093 15157
L3075 15232
L3056 15269
L3018 15306
L2962 15325
L2868 15325
" />
<path d="M3225 14932
L3487 14932
L3318 15325
" />
<path d="M4493 13750
L4493 13357
" />
<path d="M4718 13750
L4549 13525
" />
<path d="M4718 13357
L4493 13582
" />
<path d="M13597 14853
L13597 14459
L13690 14459
L13747 14478
L13784 14515
L13803 14553
L13822 14628
L13822 14684
L13803 14759
L13784 14797
L13747 14834
L13690 14853
L13597 14853
" />
<path d="M14159 14590
L14159 14853
" />
<path d="M14065 14440
L13972 14722
L14215 14722
" />
<path d="M12131 14144
L12131 13750
" />
<path d="M12356 14144
L12187 13919
" />
<path d="M12356 13750
L12131 13975
" />
<path d="M2809 13829
L2809 13435
L2903 13435
L2959 13454
L2997 13492
L3016 13529
L3034 13604
L3034 13660
L3016 13735
L2997 13773
L2959 13810
L2903 13829
L2809 13829
" />
<path d="M3390 13435
L3203 13435
L3184 13623
L3203 13604
L3241 13585
L3334 13585
L3372 13604
L3390 13623
L3409 13660
L3409 13754
L3390 13792
L3372 13810
L3334 13829
L3241 13829
L3203 13810
L3184 13792
" />
<path d="M1501 13829
L1501 13435
" />
<path d="M1726 13829
L1557 13604
" />
<path d="M1726 13435
L1501 13660
" />
<path d="M2770 12333
L2770 11939
L2864 11939
L2920 11958
L2957 11996
L2976 12033
L2995 12108
L2995 12164
L2976 12239
L2957 12277
L2920 12314
L2864 12333
L2770 12333
" />
<path d="M3332 11939
L3257 11939
L3220 11958
L3201 11977
L3164 12033
L3145 12108
L3145 12258
L3164 12296
L3182 12314
L3220 12333
L3295 12333
L3332 12314
L3351 12296
L3370 12258
L3370 12164
L3351 12127
L3332 12108
L3295 12089
L3220 12089
L3182 12108
L3164 12127
L3145 12164
" />
<path d="M4493 12254
L4493 11861
" />
<path d="M4718 12254
L4549 12029
" />
<path d="M4718 11861
L4493 12086
" />
<path d="M8942 217
L8942 536
L8960 573
L8979 592
L9017 611
L9092 611
L9129 592
L9148 573
L9167 536
L9167 217
" />
<path d="M9335 254
L9354 236
L9392 217
L9485 217
L9523 236
L9542 254
L9560 292
L9560 329
L9542 386
L9317 611
L9560 611
" />
<path d="M15740 16938
L15702 16919
L15665 16881
L15608 16825
L15571 16806
L15533 16806
" />
<path d="M15552 16900
L15515 16881
L15477 16844
L15458 16769
L15458 16638
L15477 16563
L15515 16525
L15552 16506
L15627 16506
L15665 16525
L15702 16563
L15721 16638
L15721 16769
L15702 16844
L15665 16881
L15627 16900
L15552 16900
" />
<path d="M16077 16506
L15890 16506
L15871 16694
L15890 16675
L15927 16656
L16021 16656
L16058 16675
L16077 16694
L16096 16731
L16096 16825
L16077 16863
L16058 16881
L16021 16900
L15927 16900
L15890 16881
L15871 16863
" />
<path d="M7944 10087
L7907 10068
L7869 10031
L7813 9975
L7776 9956
L7738 9956
" />
<path d="M7757 10050
L7719 10031
L7682 9993
L7663 9918
L7663 9787
L7682 9712
L7719 9675
L7757 9656
L7832 9656
L7869 9675
L7907 9712
L7926 9787
L7926 9918
L7907 9993
L7869 10031
L7832 10050
L7757 10050
" />
<path d="M8076 9693
L8094 9675
L8132 9656
L8226 9656
L8263 9675
L8282 9693
L8300 9731
L8300 9768
L8282 9825
L8057 10050
L8300 10050
" />
<path d="M10700 10087
L10663 10068
L10625 10031
L10569 9975
L10531 9956
L10494 9956
" />
<path d="M10513 10050
L10475 10031
L10438 9993
L10419 9918
L10419 9787
L10438 9712
L10475 9675
L10513 9656
L10588 9656
L10625 9675
L10663 9712
L10681 9787
L10681 9918
L10663 9993
L10625 10031
L10588 10050
L10513 10050
" />
<path d="M10813 9656
L11056 9656
L10925 9806
L10981 9806
L11019 9825
L11038 9843
L11056 9881
L11056 9975
L11038 10012
L11019 10031
L10981 10050
L10869 10050
L10831 10031
L10813 10012
" />
<path d="M5110 10087
L5072 10068
L5035 10031
L4978 9975
L4941 9956
L4903 9956
" />
<path d="M4922 10050
L4885 10031
L4847 9993
L4828 9918
L4828 9787
L4847 9712
L4885 9675
L4922 9656
L4997 9656
L5035 9675
L5072 9712
L5091 9787
L5091 9918
L5072 9993
L5035 10031
L4997 10050
L4922 10050
" />
<path d="M5428 9787
L5428 10050
" />
<path d="M5335 9637
L5241 9918
L5485 9918
" />
<path d="M13850 11977
L13812 11958
L13775 11921
L13719 11864
L13681 11846
L13644 11846
" />
<path d="M13662 11939
L13625 11921
L13587 11883
L13569 11808
L13569 11677
L13587 11602
L13625 11564
L13662 11546
L13737 11546
L13775 11564
L13812 11602
L13831 11677
L13831 11808
L13812 11883
L13775 11921
L13737 11939
L13662 11939
" />
<path d="M14206 11939
L13981 11939
" />
<path d="M14094 11939
L14094 11546
L14056 11602
L14019 11639
L13981 11658
" />
<path d="M1298 6266
L1110 6398
" />
<path d="M1298 6491
L904 6491
L904 6341
L923 6304
L941 6285
L979 6266
L1035 6266
L1073 6285
L1091 6304
L1110 6341
L1110 6491
" />
<path d="M941 6116
L923 6098
L904 6060
L904 5966
L923 5929
L941 5910
L979 5891
L1016 5891
L1073 5910
L1298 6135
L1298 5891
" />
<path d="M1298 5516
L1298 5741
" />
<path d="M1298 5629
L904 5629
L960 5666
L998 5704
L1016 5741
" />
<path d="M15426 1841
L15294 1654
" />
<path d="M15201 1841
L15201 1447
L15351 1447
L15388 1466
L15407 1485
L15426 1522
L15426 1579
L15407 1616
L15388 1635
L15351 1654
L15201 1654
" />
<path d="M15800 1841
L15576 1841
" />
<path d="M15688 1841
L15688 1447
L15651 1504
L15613 1541
L15576 1560
" />
<path d="M16025 1616
L15988 1597
L15969 1579
L15950 1541
L15950 1522
L15969 1485
L15988 1466
L16025 1447
L16100 1447
L16138 1466
L16157 1485
L16175 1522
L16175 1541
L16157 1579
L16138 1597
L16100 1616
L16025 1616
L15988 1635
L15969 1654
L15950 1691
L15950 1766
L15969 1803
L15988 1822
L16025 1841
L16100 1841
L16138 1822
L16157 1803
L16175 1766
L16175 1691
L16157 1654
L16138 1635
L16100 1616
" />
<path d="M5235 15951
L5047 16083
" />
<path d="M5235 16176
L4841 16176
L4841 16026
L4860 15989
L4878 15970
L4916 15951
L4972 15951
L5010 15970
L5028 15989
L5047 16026
L5047 16176
" />
<path d="M5235 15576
L5235 15801
" />
<path d="M5235 15689
L4841 15689
L4897 15726
L4935 15764
L4953 15801
" />
<path d="M5235 15389
L5235 15314
L5216 15276
L5197 15258
L5141 15220
L5066 15202
L4916 15202
L4878 15220
L4860 15239
L4841 15276
L4841 15351
L4860 15389
L4878 15408
L4916 15426
L5010 15426
L5047 15408
L5066 15389
L5085 15351
L5085 15276
L5066 15239
L5047 15220
L5010 15202
" />
<path d="M15786 12561
L15598 12692
" />
<path d="M15786 12786
L15392 12786
L15392 12636
L15411 12598
L15430 12579
L15467 12561
L15523 12561
L15561 12579
L15580 12598
L15598 12636
L15598 12786
" />
<path d="M15786 12186
L15786 12411
" />
<path d="M15786 12298
L15392 12298
L15448 12336
L15486 12373
L15505 12411
" />
<path d="M15786 11811
L15786 12036
" />
<path d="M15786 11923
L15392 11923
L15448 11961
L15486 11998
L15505 12036
" />
<path d="M14008 719
L13877 531
" />
<path d="M13783 719
L13783 325
L13933 325
L13971 344
L13989 363
L14008 400
L14008 456
L13989 494
L13971 513
L13933 531
L13783 531
" />
<path d="M14383 719
L14158 719
" />
<path d="M14271 719
L14271 325
L14233 381
L14196 419
L14158 438
" />
<path d="M14514 325
L14777 325
L14608 719
" />
<path d="M16803 2943
L16672 2756
" />
<path d="M16579 2943
L16579 2550
L16729 2550
L16766 2568
L16785 2587
L16803 2625
L16803 2681
L16785 2718
L16766 2737
L16729 2756
L16579 2756
" />
<path d="M17178 2943
L16953 2943
" />
<path d="M17066 2943
L17066 2550
L17028 2606
L16991 2643
L16953 2662
" />
<path d="M17516 2550
L17441 2550
L17403 2568
L17385 2587
L17347 2643
L17328 2718
L17328 2868
L17347 2906
L17366 2925
L17403 2943
L17478 2943
L17516 2925
L17535 2906
L17553 2868
L17553 2775
L17535 2737
L17516 2718
L17478 2700
L17403 2700
L17366 2718
L17347 2737
L17328 2775
" />
<path d="M17374 3613
L17243 3425
" />
<path d="M17149 3613
L17149 3219
L17299 3219
L17337 3238
L17356 3256
L17374 3294
L17374 3350
L17356 3388
L17337 3406
L17299 3425
L17149 3425
" />
<path d="M17749 3613
L17524 3613
" />
<path d="M17637 3613
L17637 3219
L17599 3275
L17562 3313
L17524 3331
" />
<path d="M18106 3219
L17918 3219
L17899 3406
L17918 3388
L17956 3369
L18049 3369
L18087 3388
L18106 3406
L18124 3444
L18124 3538
L18106 3575
L18087 3594
L18049 3613
L17956 3613
L17918 3594
L17899 3575
" />
<path d="M12138 16361
L12007 16173
" />
<path d="M11913 16361
L11913 15967
L12063 15967
L12101 15986
L12119 16004
L12138 16042
L12138 16098
L12119 16136
L12101 16154
L12063 16173
L11913 16173
" />
<path d="M12513 16361
L12288 16361
" />
<path d="M12401 16361
L12401 15967
L12363 16023
L12326 16061
L12288 16079
" />
<path d="M12851 16098
L12851 16361
" />
<path d="M12757 15948
L12663 16229
L12907 16229
" />
<path d="M1587 10365
L1456 10177
" />
<path d="M1362 10365
L1362 9971
L1512 9971
L1549 9990
L1568 10008
L1587 10046
L1587 10102
L1568 10140
L1549 10158
L1512 10177
L1362 10177
" />
<path d="M1737 10008
L1756 9990
L1793 9971
L1887 9971
L1924 9990
L1943 10008
L1962 10046
L1962 10083
L1943 10140
L1718 10365
L1962 10365
" />
<path d="M2206 9971
L2243 9971
L2281 9990
L2299 10008
L2318 10046
L2337 10121
L2337 10215
L2318 10290
L2299 10327
L2281 10346
L2243 10365
L2206 10365
L2168 10346
L2149 10327
L2131 10290
L2112 10215
L2112 10121
L2131 10046
L2149 10008
L2168 9990
L2206 9971
" />
<path d="M7530 5400
L7342 5531
" />
<path d="M7530 5625
L7136 5625
L7136 5475
L7155 5438
L7174 5419
L7211 5400
L7267 5400
L7305 5419
L7324 5438
L7342 5475
L7342 5625
" />
<path d="M7530 5025
L7530 5250
" />
<path d="M7530 5138
L7136 5138
L7193 5175
L7230 5213
L7249 5250
" />
<path d="M7136 4894
L7136 4650
L7286 4782
L7286 4725
L7305 4688
L7324 4669
L7361 4650
L7455 4650
L7492 4669
L7511 4688
L7530 4725
L7530 4838
L7511 4875
L7492 4894
" />
<path d="M17365 10601
L17234 10413
" />
<path d="M17140 10601
L17140 10207
L17290 10207
L17327 10226
L17346 10245
L17365 10282
L17365 10338
L17346 10376
L17327 10395
L17290 10413
L17140 10413
" />
<path d="M17552 10601
L17627 10601
L17665 10582
L17684 10563
L17721 10507
L17740 10432
L17740 10282
L17721 10245
L17702 10226
L17665 10207
L17590 10207
L17552 10226
L17534 10245
L17515 10282
L17515 10376
L17534 10413
L17552 10432
L17590 10451
L17665 10451
L17702 10432
L17721 10413
L17740 10376
" />
<path d="M1703 4898
L1516 5029
" />
<path d="M1703 5123
L1309 5123
L1309 4973
L1328 4935
L1347 4917
L1384 4898
L1441 4898
L1478 4917
L1497 4935
L1516 4973
L1516 5123
" />
<path d="M1478 4673
L1459 4710
L1441 4729
L1403 4748
L1384 4748
L1347 4729
L1328 4710
L1309 4673
L1309 4598
L1328 4560
L1347 4542
L1384 4523
L1403 4523
L1441 4542
L1459 4560
L1478 4598
L1478 4673
L1497 4710
L1516 4729
L1553 4748
L1628 4748
L1666 4729
L1684 4710
L1703 4673
L1703 4598
L1684 4560
L1666 4542
L1628 4523
L1553 4523
L1516 4542
L1497 4560
L1478 4598
" />
<path d="M6814 15888
L6683 15701
" />
<path d="M6589 15888
L6589 15495
L6739 15495
L6776 15513
L6795 15532
L6814 15570
L6814 15626
L6795 15663
L6776 15682
L6739 15701
L6589 15701
" />
<path d="M6945 15495
L7208 15495
L7039 15888
" />
<path d="M3979 758
L3848 571
" />
<path d="M3754 758
L3754 365
L3904 365
L3942 383
L3960 402
L3979 440
L3979 496
L3960 533
L3942 552
L3904 571
L3754 571
" />
<path d="M4317 365
L4242 365
L4204 383
L4185 402
L4148 458
L4129 533
L4129 683
L4148 721
L4167 740
L4204 758
L4279 758
L4317 740
L4335 721
L4354 683
L4354 590
L4335 552
L4317 533
L4279 515
L4204 515
L4167 533
L4148 552
L4129 590
" />
<path d="M12168 12018
L12037 11831
" />
<path d="M11943 12018
L11943 11624
L12093 11624
L12131 11643
L12149 11662
L12168 11699
L12168 11756
L12149 11793
L12131 11812
L12093 11831
L11943 11831
" />
<path d="M12524 11624
L12337 11624
L12318 11812
L12337 11793
L12374 11774
L12468 11774
L12506 11793
L12524 11812
L12543 11849
L12543 11943
L12524 11981
L12506 11999
L12468 12018
L12374 12018
L12337 11999
L12318 11981
" />
<path d="M13743 10601
L13612 10413
" />
<path d="M13518 10601
L13518 10207
L13668 10207
L13705 10226
L13724 10245
L13743 10282
L13743 10338
L13724 10376
L13705 10395
L13668 10413
L13518 10413
" />
<path d="M14118 10601
L13893 10601
" />
<path d="M14005 10601
L14005 10207
L13968 10263
L13930 10301
L13893 10320
" />
<path d="M11613 12929
L11425 13061
" />
<path d="M11613 13154
L11219 13154
L11219 13004
L11238 12967
L11256 12948
L11294 12929
L11350 12929
L11388 12948
L11406 12967
L11425 13004
L11425 13154
" />
<path d="M11256 12779
L11238 12761
L11219 12723
L11219 12629
L11238 12592
L11256 12573
L11294 12554
L11331 12554
L11388 12573
L11613 12798
L11613 12554
" />
<path d="M11558 6158
L11370 6289
" />
<path d="M11558 6383
L11164 6383
L11164 6233
L11183 6195
L11201 6176
L11239 6158
L11295 6158
L11333 6176
L11351 6195
L11370 6233
L11370 6383
" />
<path d="M11164 6026
L11164 5783
L11314 5914
L11314 5858
L11333 5820
L11351 5801
L11389 5783
L11483 5783
L11520 5801
L11539 5820
L11558 5858
L11558 5970
L11539 6008
L11520 6026
" />
<path d="M3349 1309
L3218 1122
" />
<path d="M3124 1309
L3124 916
L3274 916
L3312 935
L3330 953
L3349 991
L3349 1047
L3330 1085
L3312 1103
L3274 1122
L3124 1122
" />
<path d="M3687 1047
L3687 1309
" />
<path d="M3593 897
L3499 1178
L3743 1178
" />
<path d="M11740 5495
L11608 5307
" />
<path d="M11515 5495
L11515 5101
L11665 5101
L11702 5120
L11721 5138
L11740 5176
L11740 5232
L11721 5270
L11702 5288
L11665 5307
L11515 5307
" />
<path d="M12114 5495
L11889 5495
" />
<path d="M12002 5495
L12002 5101
L11964 5157
L11927 5195
L11889 5213
" />
<path d="M12264 5138
L12283 5120
L12321 5101
L12414 5101
L12452 5120
L12471 5138
L12489 5176
L12489 5213
L12471 5270
L12246 5495
L12489 5495
" />
<path d="M17335 11231
L17204 11043
" />
<path d="M17110 11231
L17110 10837
L17260 10837
L17297 10856
L17316 10875
L17335 10912
L17335 10968
L17316 11006
L17297 11025
L17260 11043
L17110 11043
" />
<path d="M17710 11231
L17485 11231
" />
<path d="M17597 11231
L17597 10837
L17560 10893
L17522 10931
L17485 10950
" />
<path d="M17954 10837
L17991 10837
L18029 10856
L18047 10875
L18066 10912
L18085 10987
L18085 11081
L18066 11156
L18047 11193
L18029 11212
L17991 11231
L17954 11231
L17916 11212
L17897 11193
L17879 11156
L17860 11081
L17860 10987
L17879 10912
L17897 10875
L17916 10856
L17954 10837
" />
</g>
<g style="fill:#000000; fill-opacity:0.0; 
stroke:#000000; stroke-width:19.685; stroke-opacity:1; 
stroke-linecap:round; stroke-linejoin:round;">
<circle cx="14675.2" cy="3946.85" r="1082.68" /> 
<path d="M5206 3104
L5206 5009
" />
<path d="M6190 3104
L5206 3104
" />
<path d="M6190 5009
L6190 3104
" />
<path d="M5206 5009
L6190 5009
" />
<path d="M5009 3159
L4025 3159
" />
<path d="M4025 3159
L4025 5064
" />
<path d="M4025 5064
L5009 5064
" />
<path d="M5009 5064
L5009 3159
" />
<path d="M11420 1970
L11420 1395
" />
<path d="M11420 1395
L12585 1395
" />
<path d="M12585 1395
L12585 1970
" />
<path d="M12585 1970
L11420 1970
" />
<circle cx="5127.95" cy="17588.6" r="1082.68" /> 
<circle cx="10580.7" cy="19557.1" r="846.457" /> 
<circle cx="5856.3" cy="19635.8" r="846.457" /> 
<circle cx="8218.5" cy="19557.1" r="846.457" /> 
<circle cx="12864.2" cy="19557.1" r="846.457" /> 
<path d="M11269 9360
L16348 9360
" />
<path d="M11269 5108
L11269 9360
" />
<path d="M16348 5108
L11269 5108
" />
<path d="M16348 9360
L16348 5108
" />
<path d="M2175 5147
L2175 9399
" />
<path d="M2175 9399
L7253 9399
" />
<path d="M7253 9399
L7253 5147
" />
<path d="M7253 5147
L2175 5147
" />
<path d="M18163 15198
L16013 15198
" />
<path d="M18163 15198
L18163 13332
" />
<path d="M16013 13332
L16013 15198
" />
<path d="M16013 13332
L18163 13332
" />
<path d="M7785 12293
L7785 15954
" />
<path d="M10698 12293
L10698 15954
" />
<path d="M7785 12293
L10698 12293
" />
<path d="M7785 15954
L10698 15954
" />
<path d="M11415 2655
L12580 2655
" />
<path d="M11415 3230
L11415 2655
" />
<path d="M12580 3230
L11415 3230
" />
<path d="M12580 2655
L12580 3230
" />
<path d="M5982 2364
L5982 1789
" />
<path d="M5982 1789
L7147 1789
" />
<path d="M7147 1789
L7147 2364
" />
<path d="M7147 2364
L5982 2364
" />
<path d="M6356 4470
L6356 3305
" />
<path d="M6931 4470
L6356 4470
" />
<path d="M6931 3305
L6931 4470
" />
<path d="M6356 3305
L6931 3305
" />
<path d="M5982 2994
L5982 2419
" />
<path d="M5982 2419
L7147 2419
" />
<path d="M7147 2419
L7147 2994
" />
<path d="M7147 2994
L5982 2994
" />
<path d="M3938 3939
L3938 5105
" />
<path d="M3364 3939
L3938 3939
" />
<path d="M3364 5105
L3364 3939
" />
<path d="M3938 5105
L3364 5105
" />
<path d="M9446 12127
L9446 11553
" />
<path d="M9446 11553
L10612 11553
" />
<path d="M10612 11553
L10612 12127
" />
<path d="M10612 12127
L9446 12127
" />
<circle cx="9222.44" cy="5856.3" r="1082.68" /> 
<circle cx="17431.1" cy="6387.8" r="1082.68" /> 
<circle cx="15797.2" cy="10423.2" r="1082.68" /> 
<path d="M1183 13356
L5009 13356
" />
<path d="M1183 12372
L1183 13356
" />
<path d="M5009 12372
L1183 12372
" />
<path d="M5009 13356
L5009 12372
" />
<path d="M11820 14183
L11820 15167
" />
<path d="M11820 15167
L15647 15167
" />
<path d="M15647 15167
L15647 14183
" />
<path d="M15647 14183
L11820 14183
" />
<path d="M5017 13868
L1190 13868
" />
<path d="M5017 14852
L5017 13868
" />
<path d="M1190 14852
L5017 14852
" />
<path d="M1190 13868
L1190 14852
" />
<path d="M5009 11860
L5009 10875
" />
<path d="M5009 10875
L1183 10875
" />
<path d="M1183 10875
L1183 11860
" />
<path d="M1183 11860
L5009 11860
" />
<path d="M7785 718
L7785 4379
" />
<path d="M10698 718
L10698 4379
" />
<path d="M7785 718
L10698 718
" />
<path d="M7785 4379
L10698 4379
" />
<path d="M15344 15332
L13218 15332
" />
<path d="M15344 18269
L13218 18269
" />
<path d="M15344 15332
L15344 18269
" />
<path d="M13218 15332
L13218 18269
" />
<path d="M8297 9631
L10446 9631
" />
<path d="M8297 9631
L8297 11498
" />
<path d="M10446 11498
L10446 9631
" />
<path d="M10446 11498
L8297 11498
" />
<path d="M13151 11498
L11001 11498
" />
<path d="M13151 11498
L13151 9631
" />
<path d="M11001 9631
L11001 11498
" />
<path d="M11001 9631
L13151 9631
" />
<path d="M5541 9631
L7690 9631
" />
<path d="M5541 9631
L5541 11498
" />
<path d="M7690 11498
L7690 9631
" />
<path d="M7690 11498
L5541 11498
" />
<path d="M14962 13938
L12812 13938
" />
<path d="M14962 13938
L14962 12072
" />
<path d="M12812 12072
L12812 13938
" />
<path d="M12812 12072
L14962 12072
" />
<path d="M1970 6596
L1395 6596
" />
<path d="M1395 6596
L1395 5431
" />
<path d="M1395 5431
L1970 5431
" />
<path d="M1970 5431
L1970 6596
" />
<path d="M11410 2025
L12575 2025
" />
<path d="M11410 2600
L11410 2025
" />
<path d="M12575 2600
L11410 2600
" />
<path d="M12575 2025
L12575 2600
" />
<path d="M5907 16281
L5332 16281
" />
<path d="M5332 16281
L5332 15116
" />
<path d="M5332 15116
L5907 15116
" />
<path d="M5907 15116
L5907 16281
" />
<path d="M16458 11725
L16458 12890
" />
<path d="M15883 11725
L16458 11725
" />
<path d="M15883 12890
L15883 11725
" />
<path d="M16458 12890
L15883 12890
" />
<path d="M11415 1340
L11415 765
" />
<path d="M11415 765
L12580 765
" />
<path d="M12580 765
L12580 1340
" />
<path d="M12580 1340
L11415 1340
" />
<path d="M11415 3285
L12580 3285
" />
<path d="M11415 3860
L11415 3285
" />
<path d="M12580 3860
L11415 3860
" />
<path d="M12580 3285
L12580 3860
" />
<path d="M11420 4411
L11420 3836
" />
<path d="M11420 3836
L12585 3836
" />
<path d="M12585 3836
L12585 4411
" />
<path d="M12585 4411
L11420 4411
" />
<path d="M11809 15332
L12974 15332
" />
<path d="M11809 15907
L11809 15332
" />
<path d="M12974 15907
L11809 15907
" />
<path d="M12974 15332
L12974 15907
" />
<path d="M3683 9899
L3683 10474
" />
<path d="M3683 10474
L2517 10474
" />
<path d="M2517 10474
L2517 9899
" />
<path d="M2517 9899
L3683 9899
" />
<path d="M7064 4470
L7064 3305
" />
<path d="M7639 4470
L7064 4470
" />
<path d="M7639 3305
L7639 4470
" />
<path d="M7064 3305
L7639 3305
" />
<path d="M16764 12127
L16764 11553
" />
<path d="M16764 11553
L17930 11553
" />
<path d="M17930 11553
L17930 12127
" />
<path d="M17930 12127
L16764 12127
" />
<path d="M3151 3935
L3151 5100
" />
<path d="M2576 3935
L3151 3935
" />
<path d="M2576 5100
L2576 3935
" />
<path d="M3151 5100
L2576 5100
" />
<path d="M7462 14860
L7462 15435
" />
<path d="M7462 15435
L6297 15435
" />
<path d="M6297 15435
L6297 14860
" />
<path d="M6297 14860
L7462 14860
" />
<path d="M7147 1104
L5982 1104
" />
<path d="M7147 529
L7147 1104
" />
<path d="M5982 529
L7147 529
" />
<path d="M5982 1104
L5982 529
" />
<path d="M11872 11553
L11872 12127
" />
<path d="M11872 12127
L10706 12127
" />
<path d="M10706 12127
L10706 11553
" />
<path d="M10706 11553
L11872 11553
" />
<path d="M14391 10080
L13226 10080
" />
<path d="M14391 9505
L14391 10080
" />
<path d="M13226 9505
L14391 9505
" />
<path d="M13226 10080
L13226 9505
" />
<path d="M12285 13446
L11710 13446
" />
<path d="M11710 13446
L11710 12281
" />
<path d="M11710 12281
L12285 12281
" />
<path d="M12285 12281
L12285 13446
" />
<path d="M10529 6675
L10529 5509
" />
<path d="M11104 6675
L10529 6675
" />
<path d="M11104 5509
L11104 6675
" />
<path d="M10529 5509
L11104 5509
" />
<path d="M5982 1734
L5982 1159
" />
<path d="M5982 1159
L7147 1159
" />
<path d="M7147 1159
L7147 1734
" />
<path d="M7147 1734
L5982 1734
" />
<path d="M11410 4466
L12575 4466
" />
<path d="M11410 5041
L11410 4466
" />
<path d="M12575 5041
L11410 5041
" />
<path d="M12575 4466
L12575 5041
" />
<path d="M16764 12994
L16764 12419
" />
<path d="M16764 12419
L17930 12419
" />
<path d="M17930 12419
L17930 12994
" />
<path d="M17930 12994
L16764 12994
" />
</g>
<g style="fill:#000000; fill-opacity:0.0; 
stroke:#000000; stroke-width:59.0551; stroke-opacity:1; 
stroke-linecap:round; stroke-linejoin:round;">
<path d="M11289 8769
L7273 8769
" />
<path d="M7273 9399
L11289 9399
" />
<path d="M11289.4 9399.61 A314.961 314.961 0.0 0 0 11289.4 8769.69 " />
<path d="M7273.62 8769.69 A314.961 314.961 0.0 0 0 7273.62 9399.61 " />
<path d="M29 29
L18533 29
" />
<path d="M18533 29
L18533 21053
" />
<path d="M18533 21053
L29 21053
" />
<path d="M29 21053
L29 29
" />
</g> 
</svg>
